<mxfile host="65bd71144e">
    <diagram id="Phs0L3d1lCbIqPEgGny4" name="Page-1">
        <mxGraphModel dx="1067" dy="777" grid="1" gridSize="10" guides="1" tooltips="1" connect="1" arrows="1" fold="1" page="1" pageScale="1" pageWidth="850" pageHeight="1100" background="none" math="0" shadow="0">
            <root>
                <mxCell id="0"/>
                <mxCell id="1" parent="0"/>
                <mxCell id="2" value="pick_response_type" style="swimlane;whiteSpace=wrap;html=1;" vertex="1" parent="1">
                    <mxGeometry x="50" y="200" width="590" height="700" as="geometry"/>
                </mxCell>
                <mxCell id="9" value="" style="edgeStyle=none;html=1;" edge="1" parent="2" target="8">
                    <mxGeometry relative="1" as="geometry">
                        <mxPoint x="165" y="107.36842105263156" as="sourcePoint"/>
                    </mxGeometry>
                </mxCell>
                <mxCell id="11" value="" style="edgeStyle=none;html=1;" edge="1" parent="2" source="7">
                    <mxGeometry relative="1" as="geometry">
                        <mxPoint x="321.1538461538462" y="130" as="targetPoint"/>
                    </mxGeometry>
                </mxCell>
                <mxCell id="13" style="edgeStyle=none;html=1;exitX=0.5;exitY=1;exitDx=0;exitDy=0;entryX=0.5;entryY=0;entryDx=0;entryDy=0;" edge="1" parent="2" source="10">
                    <mxGeometry relative="1" as="geometry">
                        <mxPoint x="349.9999999999998" y="180" as="targetPoint"/>
                    </mxGeometry>
                </mxCell>
                <mxCell id="19" value="" style="edgeStyle=none;html=1;" edge="1" parent="2" source="14" target="18">
                    <mxGeometry relative="1" as="geometry"/>
                </mxCell>
                <mxCell id="21" value="" style="edgeStyle=none;html=1;" edge="1" parent="2" source="14" target="20">
                    <mxGeometry relative="1" as="geometry"/>
                </mxCell>
                <mxCell id="14" value="Do We Have An Active Schedule&amp;nbsp;" style="rounded=0;whiteSpace=wrap;html=1;" vertex="1" parent="2">
                    <mxGeometry x="165" y="145" width="120" height="60" as="geometry"/>
                </mxCell>
                <mxCell id="31" style="edgeStyle=none;html=1;exitX=0.5;exitY=1;exitDx=0;exitDy=0;entryX=0.5;entryY=0;entryDx=0;entryDy=0;" edge="1" parent="2" source="18" target="30">
                    <mxGeometry relative="1" as="geometry"/>
                </mxCell>
                <mxCell id="18" value="Yes" style="whiteSpace=wrap;html=1;rounded=0;" vertex="1" parent="2">
                    <mxGeometry x="190" y="230" width="70" height="30" as="geometry"/>
                </mxCell>
                <mxCell id="23" style="edgeStyle=none;html=1;exitX=0.5;exitY=1;exitDx=0;exitDy=0;" edge="1" parent="2" source="20" target="4">
                    <mxGeometry relative="1" as="geometry"/>
                </mxCell>
                <mxCell id="20" value="No" style="whiteSpace=wrap;html=1;rounded=0;" vertex="1" parent="2">
                    <mxGeometry x="465" y="160" width="50" height="30" as="geometry"/>
                </mxCell>
                <mxCell id="4" value="Availability&lt;br&gt;(Generate Session Schedule)" style="rounded=1;whiteSpace=wrap;html=1;" vertex="1" parent="2">
                    <mxGeometry x="430" y="220" width="120" height="60" as="geometry"/>
                </mxCell>
                <mxCell id="46" style="edgeStyle=none;html=1;exitX=0.5;exitY=1;exitDx=0;exitDy=0;entryX=0.5;entryY=0;entryDx=0;entryDy=0;" edge="1" parent="2" source="3" target="45">
                    <mxGeometry relative="1" as="geometry"/>
                </mxCell>
                <mxCell id="3" value="Question related to current task&lt;br&gt;(Search the web)" style="rounded=1;whiteSpace=wrap;html=1;" vertex="1" parent="2">
                    <mxGeometry x="10" y="375" width="120" height="60" as="geometry"/>
                </mxCell>
                <mxCell id="43" style="edgeStyle=none;html=1;exitX=0.5;exitY=1;exitDx=0;exitDy=0;entryX=0.5;entryY=0;entryDx=0;entryDy=0;" edge="1" parent="2" source="5" target="42">
                    <mxGeometry relative="1" as="geometry"/>
                </mxCell>
                <mxCell id="5" value="Requesting More Resources&lt;br&gt;(Add Resource)" style="rounded=1;whiteSpace=wrap;html=1;" vertex="1" parent="2">
                    <mxGeometry x="160" y="375" width="130" height="60" as="geometry"/>
                </mxCell>
                <mxCell id="29" style="edgeStyle=none;html=1;exitX=0.5;exitY=1;exitDx=0;exitDy=0;entryX=0.5;entryY=0;entryDx=0;entryDy=0;" edge="1" parent="2" source="27" target="14">
                    <mxGeometry relative="1" as="geometry"/>
                </mxCell>
                <mxCell id="27" value="generate_response calls pick_response_type" style="whiteSpace=wrap;html=1;rounded=0;" vertex="1" parent="2">
                    <mxGeometry x="165" y="55" width="120" height="60" as="geometry"/>
                </mxCell>
                <mxCell id="32" style="edgeStyle=none;html=1;exitX=0.5;exitY=1;exitDx=0;exitDy=0;entryX=0.5;entryY=0;entryDx=0;entryDy=0;" edge="1" parent="2" source="30" target="3">
                    <mxGeometry relative="1" as="geometry"/>
                </mxCell>
                <mxCell id="33" style="edgeStyle=none;html=1;exitX=0.5;exitY=1;exitDx=0;exitDy=0;entryX=0.5;entryY=0;entryDx=0;entryDy=0;" edge="1" parent="2" source="30" target="5">
                    <mxGeometry relative="1" as="geometry"/>
                </mxCell>
                <mxCell id="35" style="edgeStyle=none;html=1;exitX=0.5;exitY=1;exitDx=0;exitDy=0;entryX=0.5;entryY=0;entryDx=0;entryDy=0;" edge="1" parent="2" source="30" target="34">
                    <mxGeometry relative="1" as="geometry"/>
                </mxCell>
                <mxCell id="51" style="edgeStyle=none;html=1;exitX=0.5;exitY=1;exitDx=0;exitDy=0;entryX=0.5;entryY=0;entryDx=0;entryDy=0;" edge="1" parent="2" source="30" target="48">
                    <mxGeometry relative="1" as="geometry"/>
                </mxCell>
                <mxCell id="30" value="Ask Claude What type of request is it" style="rounded=0;whiteSpace=wrap;html=1;" vertex="1" parent="2">
                    <mxGeometry x="165" y="275" width="120" height="60" as="geometry"/>
                </mxCell>
                <mxCell id="41" style="edgeStyle=none;html=1;exitX=0.5;exitY=1;exitDx=0;exitDy=0;entryX=0.5;entryY=0;entryDx=0;entryDy=0;" edge="1" parent="2" source="34" target="37">
                    <mxGeometry relative="1" as="geometry"/>
                </mxCell>
                <mxCell id="34" value="Unrelated Question (Disreguard anything not DS/A Related)" style="rounded=1;whiteSpace=wrap;html=1;" vertex="1" parent="2">
                    <mxGeometry x="310" y="375" width="120" height="60" as="geometry"/>
                </mxCell>
                <mxCell id="36" value="Return Answer To Chatbot window" style="rounded=1;whiteSpace=wrap;html=1;" vertex="1" parent="2">
                    <mxGeometry x="10" y="570" width="120" height="60" as="geometry"/>
                </mxCell>
                <mxCell id="38" value="call add_resource()&lt;br&gt;send Titles and links to Chatbot window" style="rounded=1;whiteSpace=wrap;html=1;" vertex="1" parent="2">
                    <mxGeometry x="165" y="570" width="120" height="60" as="geometry"/>
                </mxCell>
                <mxCell id="37" value="Tell User to screw off in chatbot window" style="rounded=1;whiteSpace=wrap;html=1;" vertex="1" parent="2">
                    <mxGeometry x="310" y="570" width="120" height="60" as="geometry"/>
                </mxCell>
                <mxCell id="44" style="edgeStyle=none;html=1;exitX=0.5;exitY=1;exitDx=0;exitDy=0;entryX=0.5;entryY=0;entryDx=0;entryDy=0;" edge="1" parent="2" source="42" target="38">
                    <mxGeometry relative="1" as="geometry"/>
                </mxCell>
                <mxCell id="42" value="search the web for articles and videos to get URLS" style="rounded=1;whiteSpace=wrap;html=1;" vertex="1" parent="2">
                    <mxGeometry x="165" y="470" width="120" height="60" as="geometry"/>
                </mxCell>
                <mxCell id="47" style="edgeStyle=none;html=1;exitX=0.5;exitY=1;exitDx=0;exitDy=0;entryX=0.5;entryY=0;entryDx=0;entryDy=0;" edge="1" parent="2" source="45" target="36">
                    <mxGeometry relative="1" as="geometry"/>
                </mxCell>
                <mxCell id="45" value="Use Claude Search functionality to formulate an answer" style="rounded=1;whiteSpace=wrap;html=1;" vertex="1" parent="2">
                    <mxGeometry x="10" y="470" width="120" height="60" as="geometry"/>
                </mxCell>
                <mxCell id="50" style="edgeStyle=none;html=1;exitX=0.5;exitY=1;exitDx=0;exitDy=0;entryX=0.5;entryY=0;entryDx=0;entryDy=0;" edge="1" parent="2" source="48" target="49">
                    <mxGeometry relative="1" as="geometry"/>
                </mxCell>
                <mxCell id="48" value="Unsure How to clasify" style="rounded=1;whiteSpace=wrap;html=1;" vertex="1" parent="2">
                    <mxGeometry x="450" y="375" width="120" height="60" as="geometry"/>
                </mxCell>
                <mxCell id="49" value="Ask user to rephrase or try again in Chatbot window" style="rounded=1;whiteSpace=wrap;html=1;" vertex="1" parent="2">
                    <mxGeometry x="450" y="570" width="120" height="60" as="geometry"/>
                </mxCell>
            </root>
        </mxGraphModel>
    </diagram>
</mxfile>